<?xml version="1.0" standalone="no"?><!DOCTYPE svg PUBLIC "-//W3C//DTD SVG 1.1//EN" "http://www.w3.org/Graphics/SVG/1.1/DTD/svg11.dtd"><svg t="1627465195744" class="icon" viewBox="0 0 1024 1024" version="1.1" xmlns="http://www.w3.org/2000/svg" p-id="3211" xmlns:xlink="http://www.w3.org/1999/xlink" width="200" height="200"><defs><style type="text/css">@font-face { font-family: feedback-iconfont; src: url("//at.alicdn.com/t/font_1031158_1uhr8ri0pk5.eot?#iefix") format("embedded-opentype"), url("//at.alicdn.com/t/font_1031158_1uhr8ri0pk5.woff2") format("woff2"), url("//at.alicdn.com/t/font_1031158_1uhr8ri0pk5.woff") format("woff"), url("//at.alicdn.com/t/font_1031158_1uhr8ri0pk5.ttf") format("truetype"), url("//at.alicdn.com/t/font_1031158_1uhr8ri0pk5.svg#iconfont") format("svg"); }
</style></defs><path d="M649.824 604.576a31.968 31.968 0 1 1-45.248 45.248L505.6 550.848l-98.976 98.976a31.904 31.904 0 0 1-45.248 0 32 32 0 0 1 0-45.248l98.976-98.976-98.976-98.976a32 32 0 0 1 45.248-45.248l98.976 98.976 98.976-98.976a32 32 0 0 1 45.248 45.248L550.848 505.6l98.976 98.976zM512 128C300.288 128 128 300.288 128 512c0 211.744 172.288 384 384 384 211.744 0 384-172.256 384-384 0-211.712-172.256-384-384-384z" p-id="3212" fill="#f5222d"></path></svg>