<?xml version="1.0" encoding="UTF-8"?>
<svg width="101px" height="46px" viewBox="0 0 101 46" version="1.1" xmlns="http://www.w3.org/2000/svg" xmlns:xlink="http://www.w3.org/1999/xlink">
    <!-- Generator: Sketch 55 (78076) - https://sketchapp.com -->
    <title>Group 12</title>
    <desc>Created with Sketch.</desc>
    <defs>
        <rect id="path-1" x="-1.0658141e-14" y="0" width="62" height="24" rx="2"></rect>
        <filter x="-18.5%" y="-39.6%" width="137.1%" height="195.8%" filterUnits="objectBoundingBox" id="filter-2">
            <feOffset dx="0" dy="2" in="SourceAlpha" result="shadowOffsetOuter1"></feOffset>
            <feGaussianBlur stdDeviation="3.5" in="shadowOffsetOuter1" result="shadowBlurOuter1"></feGaussianBlur>
            <feComposite in="shadowBlurOuter1" in2="SourceAlpha" operator="out" result="shadowBlurOuter1"></feComposite>
            <feColorMatrix values="0 0 0 0 0.350919225   0 0 0 0 0.502210423   0 0 0 0 0.828068388  0 0 0 0.32 0" type="matrix" in="shadowBlurOuter1"></feColorMatrix>
        </filter>
        <mask id="mask-3" maskContentUnits="userSpaceOnUse" maskUnits="objectBoundingBox" x="0" y="0" width="62" height="24" fill="white">
            <use xlink:href="#path-1"></use>
        </mask>
        <path d="M8.43636364,0.272727273 L5.81818182,2.89090909 C5.81818182,2.89090909 5.29090909,3.49090909 5.81818182,3.90909091 C6.34545455,4.32727273 6.54545455,4.49090909 6.54545455,4.49090909 L8,4.49090909 L8,7.98181818 L4.50909091,7.98181818 L4.50909091,6.67272727 L3.92727273,5.8 C3.92727273,5.8 3.50909091,5.2 2.90909091,5.8 L0.290909091,8.41818182 C0.290909091,8.41818182 -0.327272727,8.81818182 0.290909091,9.43636364 L3.05454545,12.2 C3.05454545,12.2 3.29381818,12.4909091 3.49090909,12.4909091 C3.72669091,12.4909091 3.92727273,12.2 3.92727273,12.2 L4.50909091,11.4727273 L4.50909091,10.0181818 L8,10.0181818 L8,13.5090909 L6.54545455,13.5090909 L5.81818182,14.0909091 C5.81818182,14.0909091 5.29090909,14.5818182 5.81818182,15.1090909 C6.34545455,15.6363636 8.58181818,17.7272727 8.58181818,17.7272727 C8.58181818,17.7272727 8.96363636,18.3636364 9.6,17.7272727 L12.2181818,15.1090909 C12.2181818,15.1090909 12.8545455,14.7272727 12.2181818,14.0909091 C11.5818182,13.4545455 11.4909091,13.5090909 11.4909091,13.5090909 L10.0363636,13.5090909 L10.0363636,10.0181818 L13.5272727,10.0181818 L13.5272727,11.4727273 L14.1090909,12.2 C14.1090909,12.2 14.5636364,12.7636364 15.1272727,12.2 C15.6909091,11.6363636 17.7454545,9.43636364 17.7454545,9.43636364 C17.7454545,9.43636364 18.2909091,8.96363636 17.7454545,8.41818182 C17.2,7.87272727 14.9818182,5.8 14.9818182,5.8 C14.9818182,5.8 14.5272727,5.38181818 14.1090909,5.8 C13.6909091,6.21818182 13.5272727,6.52727273 13.5272727,6.52727273 L13.5272727,7.98181818 L10.0363636,7.98181818 L10.0363636,4.49090909 L11.4909091,4.49090909 L12.2181818,3.90909091 C12.2181818,3.90909091 12.7818182,3.45454545 12.2181818,2.89090909 C11.6545455,2.32727273 9.45454545,0.272727273 9.45454545,0.272727273 C9.45454545,0.272727273 9.01818182,-0.309090909 8.43636364,0.272727273 Z" id="path-4"></path>
        <filter x="-47.7%" y="-42.0%" width="195.2%" height="195.2%" filterUnits="objectBoundingBox" id="filter-5">
            <feMorphology radius="0.5" operator="dilate" in="SourceAlpha" result="shadowSpreadOuter1"></feMorphology>
            <feOffset dx="0" dy="1" in="shadowSpreadOuter1" result="shadowOffsetOuter1"></feOffset>
            <feGaussianBlur stdDeviation="2.5" in="shadowOffsetOuter1" result="shadowBlurOuter1"></feGaussianBlur>
            <feComposite in="shadowBlurOuter1" in2="SourceAlpha" operator="out" result="shadowBlurOuter1"></feComposite>
            <feColorMatrix values="0 0 0 0 0.364902434   0 0 0 0 0.548832424   0 0 0 0 0.855525362  0 0 0 0.32 0" type="matrix" in="shadowBlurOuter1"></feColorMatrix>
        </filter>
    </defs>
    <g id="0816-头部改动" stroke="none" stroke-width="1" fill="none" fill-rule="evenodd">
        <g id="仪表盘设计_缺省" transform="translate(-1282.000000, -296.000000)">
            <g id="Group-12" transform="translate(1282.000000, 296.000000)">
                <rect id="Rectangle" fill="#DFEEFF" x="0" y="0" width="57" height="24" rx="2"></rect>
                <g id="Group-5" transform="translate(26.142857, 8.000000)">
                    <g id="o" stroke-dasharray="2">
                        <use fill="black" fill-opacity="1" filter="url(#filter-2)" xlink:href="#path-1"></use>
                        <use stroke="#74AEFF" mask="url(#mask-3)" stroke-width="2" fill="#FFFFFF" fill-rule="evenodd" xlink:href="#path-1"></use>
                    </g>
                    <ellipse id="Oval" fill="#70ACFF" cx="11.8727915" cy="12" rx="2.82685512" ry="2.85714286"></ellipse>
                    <rect id="Rectangle" fill="#70ACFF" x="19.2226148" y="9.14285714" width="33.9222615" height="5.71428571" rx="2.5"></rect>
                </g>
                <g id="十字箭头-copy" transform="translate(78.000000, 22.142857)" fill-rule="nonzero">
                    <g id="Shape">
                        <use fill="black" fill-opacity="1" filter="url(#filter-5)" xlink:href="#path-4"></use>
                        <use stroke="#FFFFFF" stroke-width="1" fill="#7585A4" xlink:href="#path-4"></use>
                    </g>
                </g>
            </g>
        </g>
    </g>
</svg>