<?xml version="1.0" encoding="UTF-8"?>
<svg width="60px" height="60px" viewBox="0 0 60 60" version="1.1" xmlns="http://www.w3.org/2000/svg" xmlns:xlink="http://www.w3.org/1999/xlink">
    <!-- Generator: Sketch 55 (78076) - https://sketchapp.com -->
    <title>指示图灰</title>
    <desc>Created with Sketch.</desc>
    <g id="0709" stroke="none" stroke-width="1" fill="none" fill-rule="evenodd">
        <g id="图标0725" transform="translate(-136.000000, -111.000000)">
            <g id="编组-5" transform="translate(136.000000, 79.000000)">
                <g id="指示图灰" transform="translate(0.000000, 32.000000)">
                    <rect id="Rectangle-Copy-11" stroke="#C9CCD8" fill="#FFFFFF" opacity="0.01" x="0.5" y="0.5" width="59" height="59"></rect>
                    <rect id="Rectangle" fill-opacity="0.5" fill="#C9CCD8" x="10" y="17.4193548" width="21" height="4.83870968"></rect>
                    <path d="M15.78125,42.7741935 L12.4414062,42.7741935 L12.4414062,34.375756 C12.4414062,33.8939828 12.3404958,33.5521893 12.1386719,33.3503654 C11.9368479,33.1485415 11.549482,33.047631 10.9765625,33.047631 L10.4882812,33.047631 L10.4882812,31.485131 C11.2304725,31.3288803 11.8749973,31.0619559 12.421875,30.6843498 C12.8906273,30.3588273 13.3528623,29.9096131 13.8085938,29.3366935 L15.78125,29.3366935 L15.78125,42.7741935 Z" id="路径" fill="#C9CCD8" fill-rule="nonzero"></path>
                    <path d="M25.703125,32.578881 C25.703125,33.2950305 25.5533869,34.0437209 25.2539062,34.8249748 C25.0065092,35.4629988 24.576826,36.3028342 23.9648438,37.344506 C23.3528615,38.3861779 22.7343781,39.4278342 22.109375,40.469506 L25.4101562,40.469506 L25.4101562,42.7741935 L18.7695312,42.7741935 L18.7695312,40.860131 C19.7070359,39.1543934 20.3450504,37.9825301 20.6835938,37.344506 C21.0872416,36.6023148 21.5494766,35.7103967 22.0703125,34.6687248 C22.4088559,33.9525754 22.6236975,33.4415128 22.7148438,33.1355217 C22.80599,32.8295306 22.8515625,32.5137785 22.8515625,32.188256 C22.8515625,31.4981484 22.6237002,31.1530998 22.1679688,31.1530998 C21.9075508,31.1530998 21.7317713,31.2833068 21.640625,31.5437248 C21.5494787,31.8041428 21.5039062,32.1687225 21.5039062,32.6374748 L21.5039062,33.8874748 L18.7695312,33.8874748 L18.7695312,33.438256 C18.7695312,33.1778381 18.7727864,32.9239344 18.7792969,32.6765373 C18.7858073,32.4291402 18.8085936,32.1752365 18.8476562,31.9148185 C18.9778652,30.9903348 19.3229139,30.2872168 19.8828125,29.8054435 C20.4427111,29.3236703 21.1783809,29.0827873 22.0898438,29.0827873 C22.5585961,29.0827873 22.9752586,29.1316149 23.3398438,29.2292717 C23.7044289,29.3269284 24.0429672,29.486432 24.3554688,29.7077873 C25.2539107,30.384874 25.703125,31.3418957 25.703125,32.578881 Z" id="路径" fill="#C9CCD8" fill-rule="nonzero"></path>
                    <path d="M33.8867188,38.750756 C33.8867188,39.5710726 33.8346359,40.2286182 33.7304688,40.7234123 C33.6263016,41.2182064 33.4179703,41.6478896 33.1054688,42.0124748 C32.5325492,42.6895615 31.6731828,43.0280998 30.5273438,43.0280998 C29.3164002,43.0280998 28.3984406,42.7839616 27.7734375,42.2956779 C27.1484344,41.8073942 26.8359375,41.08149 26.8359375,40.1179435 L26.7773438,38.4968498 L26.7773438,38.0280998 L29.7851562,38.0280998 L29.7851562,40.1374748 C29.7851562,40.6843525 29.9544254,40.9577873 30.2929688,40.9577873 C30.5533867,40.9577873 30.7128903,40.8275803 30.7714844,40.5671623 C30.8300784,40.3067443 30.859375,39.818468 30.859375,39.1023185 L30.859375,38.1648185 C30.859375,37.3835646 30.7226576,36.8887779 30.4492188,36.6804435 C30.2408844,36.5241928 29.7786494,36.4460685 29.0625,36.4460685 L29.0625,34.4929435 L29.2382812,34.4929435 C29.9674516,34.4929435 30.419921,34.4213297 30.5957031,34.2780998 C30.7714853,34.1348699 30.859375,33.7247178 30.859375,33.047631 L30.859375,32.2859123 C30.859375,31.8822644 30.8398439,31.6218504 30.8007812,31.5046623 C30.7226559,31.2702861 30.5664074,31.1530998 30.3320312,31.1530998 C29.9674461,31.1530998 29.7851562,31.4200242 29.7851562,31.953881 L29.7851562,33.1062248 L26.7773438,33.1062248 L26.7773438,32.344506 C26.7773438,31.0944998 27.0345026,30.2383886 27.5488281,29.7761467 C28.0631536,29.3139048 28.958327,29.0827873 30.234375,29.0827873 C31.4322977,29.0827873 32.3209606,29.3659876 32.9003906,29.9323967 C33.4798206,30.4988058 33.7695312,31.4004894 33.7695312,32.6374748 C33.7695312,33.4057078 33.6458346,33.9851291 33.3984375,34.375756 C33.2291658,34.6491949 32.9362,34.909609 32.5195312,35.157006 C33.1184926,35.4044031 33.496093,35.7657276 33.6523438,36.2409904 C33.8085945,36.7162532 33.8867188,37.5528334 33.8867188,38.750756 Z" id="路径" fill="#C9CCD8" fill-rule="nonzero"></path>
                    <path d="M42.1289062,40.4109123 L41.2695312,40.4109123 L41.2695312,42.7741935 L38.2617188,42.7741935 L38.2617188,40.4109123 L34.6679688,40.4109123 L34.6682739,38.1062248 L37.2854614,29.3366935 L41.2695312,29.3366935 L41.2695312,38.1062248 L42.1289062,38.1062248 L42.1289062,40.4109123 Z M38.2617188,38.1062248 L38.2653809,32.4043205 L36.9107056,38.1053093 L38.2617188,38.1062248 Z" id="形状结合" fill-opacity="0.8" fill="#C9CCD8" fill-rule="nonzero"></path>
                    <path d="M50.078125,36.6023185 L50.078125,38.907006 C50.078125,39.68826 50.0716655,40.1439846 50.0587463,40.2741935 C50.0458272,40.4044025 49.9939987,40.6192441 49.9032593,40.9187248 C49.5148703,42.3249818 48.4076019,43.0280998 46.5814209,43.0280998 C45.1959159,43.0280998 44.2117339,42.624458 43.6288452,41.8171623 C43.3440131,41.4525771 43.1530258,41.0066181 43.0558777,40.4792717 C42.9587296,39.9519253 42.9101562,39.2781039 42.9101562,38.4577873 L42.9101562,38.125756 L45.8984375,38.125756 L45.8984375,40.0398185 C45.8984375,40.6518008 46.1071756,40.9577873 46.5246582,40.9577873 C46.8884296,40.9577873 47.0703125,40.4955523 47.0703125,39.5710685 L47.0703125,36.2116935 C47.0703125,35.7429412 47.0312504,35.4109133 46.953125,35.2155998 C46.8749996,35.0202863 46.7122408,34.922631 46.4648438,34.922631 C46.2565094,34.922631 46.1100265,35.0202863 46.0253906,35.2155998 C45.9407548,35.4109133 45.8984375,35.7103894 45.8984375,36.1140373 L42.9101562,36.1140373 L43.0273438,29.3366935 L49.4726562,29.3366935 L49.4726562,31.485131 L45.78125,31.485131 L45.78125,33.7702873 C46.0026053,33.4838275 46.2304676,33.2689859 46.4648438,33.125756 C46.7643244,32.9434635 47.1158834,32.8523185 47.5195312,32.8523185 C48.4830777,32.8523185 49.1601543,33.1648154 49.5507812,33.7898185 C49.9023455,34.3627381 50.078125,35.3002287 50.078125,36.6023185 Z" id="路径" fill-opacity="0.59" fill="#C9CCD8" fill-rule="nonzero"></path>
                </g>
            </g>
        </g>
    </g>
</svg>