<?xml version="1.0" encoding="UTF-8"?>
<svg width="60px" height="60px" viewBox="0 0 60 60" version="1.1" xmlns="http://www.w3.org/2000/svg" xmlns:xlink="http://www.w3.org/1999/xlink">
    <!-- Generator: Sketch 55 (78076) - https://sketchapp.com -->
    <title>指标图</title>
    <desc>Created with Sketch.</desc>
    <g id="0709" stroke="none" stroke-width="1" fill="none" fill-rule="evenodd">
        <g id="图标0725" transform="translate(-521.000000, -121.000000)">
            <g id="编组-4" transform="translate(521.000000, 77.000000)">
                <g id="指标图" transform="translate(0.000000, 44.000000)">
                    <rect id="Rectangle-Copy-11" fill="#F7F9FC" opacity="0.01" x="0" y="0" width="60" height="60"></rect>
                    <g id="Group-6" transform="translate(10.000000, 17.419355)" fill="#107FFF">
                        <rect id="Rectangle" opacity="0.5" x="0" y="0" width="21" height="4.83870968"></rect>
                        <path d="M5.78125,25.1612903 L2.44140625,25.1612903 L2.44140625,17.0337702 C2.44140625,16.567538 2.3404958,16.2367701 2.13867188,16.0414567 C1.93684795,15.8461432 1.54948203,15.7484879 0.9765625,15.7484879 L0.48828125,15.7484879 L0.48828125,14.2363911 C1.23047246,14.0851807 1.87499727,13.8268667 2.421875,13.4614415 C2.89062734,13.1464198 3.3528623,12.7116963 3.80859375,12.1572581 L5.78125,12.1572581 L5.78125,25.1612903 Z" id="Path"></path>
                        <path d="M15.703125,15.2948589 C15.703125,15.9879067 15.5533869,16.7124458 15.2539062,17.468498 C15.0065092,18.0859406 14.576826,18.8986845 13.9648438,19.906754 C13.3528615,20.9148236 12.7343781,21.922878 12.109375,22.9309476 L15.4101562,22.9309476 L15.4101562,25.1612903 L8.76953125,25.1612903 L8.76953125,23.3089718 C9.70703594,21.6582579 10.3450504,20.5241966 10.6835938,19.906754 C11.0872416,19.1885045 11.5494766,18.3253579 12.0703125,17.3172883 C12.4088559,16.6242405 12.6236975,16.1296638 12.7148438,15.8335433 C12.80599,15.5374229 12.8515625,15.2318564 12.8515625,14.9168347 C12.8515625,14.2489886 12.6237002,13.9150706 12.1679688,13.9150706 C11.9075508,13.9150706 11.7317713,14.0410774 11.640625,14.2930948 C11.5494787,14.5451121 11.5039062,14.8979312 11.5039062,15.3515625 L11.5039062,16.5612399 L8.76953125,16.5612399 L8.76953125,16.1265121 C8.76953125,15.8744947 8.77278643,15.6287814 8.77929688,15.3893649 C8.78580732,15.1499484 8.80859355,14.9042351 8.84765625,14.6522177 C8.97786523,13.757556 9.32291387,13.0771193 9.8828125,12.6108871 C10.4427111,12.1446549 11.1783809,11.9115423 12.0898438,11.9115423 C12.5585961,11.9115423 12.9752586,11.9587949 13.3398438,12.0533014 C13.7044289,12.1478079 14.0429672,12.3021663 14.3554688,12.516381 C15.2539107,13.1716263 15.703125,14.0977763 15.703125,15.2948589 Z" id="Path"></path>
                        <path d="M23.8867188,21.2676411 C23.8867188,22.0614959 23.8346359,22.6978303 23.7304688,23.1766633 C23.6263016,23.6554963 23.4179703,24.0713188 23.1054688,24.4241431 C22.5325492,25.0793884 21.6731828,25.407006 20.5273438,25.407006 C19.3164002,25.407006 18.3984406,25.1707433 17.7734375,24.6982107 C17.1484344,24.2256781 16.8359375,23.5231901 16.8359375,22.5907258 L16.7773438,21.0219254 L16.7773438,20.5682964 L19.7851562,20.5682964 L19.7851562,22.609627 C19.7851562,23.1388635 19.9544254,23.4034778 20.2929688,23.4034778 C20.5533867,23.4034778 20.7128903,23.277471 20.7714844,23.0254536 C20.8300784,22.7734362 20.859375,22.3009107 20.859375,21.6078629 L20.859375,20.7006048 C20.859375,19.9445527 20.7226576,19.4657268 20.4492188,19.2641129 C20.2408844,19.1129025 19.7786494,19.0372984 19.0625,19.0372984 L19.0625,17.1471774 L19.2382812,17.1471774 C19.9674516,17.1471774 20.419921,17.0778737 20.5957031,16.9392641 C20.7714853,16.8006545 20.859375,16.4037331 20.859375,15.7484879 L20.859375,15.0113407 C20.859375,14.6207138 20.8398439,14.3687002 20.8007812,14.2552923 C20.7226559,14.0284767 20.5664074,13.9150706 20.3320312,13.9150706 C19.9674461,13.9150706 19.7851562,14.1733845 19.7851562,14.6900202 L19.7851562,15.8051915 L16.7773438,15.8051915 L16.7773438,15.0680444 C16.7773438,13.8583609 17.0345026,13.0298661 17.5488281,12.5825353 C18.0631536,12.1352044 18.958327,11.9115423 20.234375,11.9115423 C21.4322977,11.9115423 22.3209606,12.1856071 22.9003906,12.733745 C23.4798206,13.2818828 23.7695312,14.1544799 23.7695312,15.3515625 C23.7695312,16.0950138 23.6458346,16.6557441 23.3984375,17.0337702 C23.2291658,17.2983884 22.9362,17.550402 22.5195312,17.7898185 C23.1184926,18.0292351 23.496093,18.378904 23.6523438,18.8388357 C23.8085945,19.2987674 23.8867188,20.1083611 23.8867188,21.2676411 Z" id="Path"></path>
                        <path d="M32.1289062,22.874244 L31.2695312,22.874244 L31.2695312,25.1612903 L28.2617188,25.1612903 L28.2617188,22.874244 L24.6679688,22.874244 L24.6682739,20.6439012 L27.2854614,12.1572581 L31.2695312,12.1572581 L31.2695312,20.6439012 L32.1289062,20.6439012 L32.1289062,22.874244 Z M28.2617188,20.6439012 L28.2653809,15.1259293 L26.9107056,20.6430152 L28.2617188,20.6439012 Z" id="Combined-Shape" fill-opacity="0.8"></path>
                        <path d="M40.078125,19.1885081 L40.078125,21.4188508 C40.078125,22.174903 40.0716655,22.6159268 40.0587463,22.7419355 C40.0458272,22.8679442 39.9939987,23.0758554 39.9032593,23.3656754 C39.5148703,24.7265693 38.4076019,25.407006 36.5814209,25.407006 C35.1959159,25.407006 34.2117339,25.016385 33.6288452,24.235131 C33.3440131,23.8823067 33.1530258,23.4507334 33.0558777,22.9403982 C32.9587296,22.430063 32.9101562,21.7779778 32.9101562,20.984123 L32.9101562,20.6628024 L35.8984375,20.6628024 L35.8984375,22.515121 C35.8984375,23.1073618 36.1071756,23.4034778 36.5246582,23.4034778 C36.8884296,23.4034778 37.0703125,22.9561537 37.0703125,22.0614919 L37.0703125,18.8104839 C37.0703125,18.3568526 37.0312504,18.0355352 36.953125,17.8465222 C36.8749996,17.6575091 36.7122408,17.563004 36.4648438,17.563004 C36.2565094,17.563004 36.1100265,17.6575091 36.0253906,17.8465222 C35.9407548,18.0355352 35.8984375,18.3253509 35.8984375,18.7159778 L32.9101562,18.7159778 L33.0273438,12.1572581 L39.4726562,12.1572581 L39.4726562,14.2363911 L35.78125,14.2363911 L35.78125,16.4478327 C36.0026053,16.1706135 36.2304676,15.9627023 36.4648438,15.8240927 C36.7643244,15.6476806 37.1158834,15.5594758 37.5195312,15.5594758 C38.4830777,15.5594758 39.1601543,15.8618921 39.5507812,16.4667339 C39.9023455,17.0211721 40.078125,17.9284211 40.078125,19.1885081 Z" id="Path" fill-opacity="0.5"></path>
                    </g>
                </g>
            </g>
        </g>
    </g>
</svg>