<?xml version="1.0" encoding="UTF-8"?>
<svg width="60px" height="60px" viewBox="0 0 60 60" version="1.1" xmlns="http://www.w3.org/2000/svg" xmlns:xlink="http://www.w3.org/1999/xlink">
    <!-- Generator: Sketch 55 (78076) - https://sketchapp.com -->
    <title>Group 20 Copy</title>
    <desc>Created with Sketch.</desc>
    <g id="0709" stroke="none" stroke-width="1" fill="none" fill-rule="evenodd">
        <g id="图标0725" transform="translate(-521.000000, -205.000000)">
            <g id="编组-4" transform="translate(521.000000, 121.000000)">
                <g id="Group-20-Copy" transform="translate(0.000000, 84.000000)">
                    <rect id="Rectangle" fill="#F7F9FC" opacity="0.01" x="0" y="0" width="60" height="60"></rect>
                    <g id="雷达图" transform="translate(11.000000, 12.000000)">
                        <rect id="Rectangle" fill="#000000" opacity="0" x="0" y="0" width="38" height="36.7741935"></rect>
                        <path d="M28.499177,33.7418252 L8.82378634,33.7418252 C8.50093478,33.7418252 8.21890353,33.5407164 8.11870821,33.2462355 L2.03648165,15.1356634 C1.93628634,14.8411826 2.04761446,14.5143807 2.30738009,14.3312279 L18.227302,3.13736454 C18.4870676,2.95421182 18.8396067,2.95421182 19.0993723,3.13736454 L35.0192942,14.3312279 C35.2790598,14.5143807 35.386677,14.8375914 35.2901926,15.1356634 L29.207966,33.2462355 C29.1077707,33.5407164 28.8220285,33.7418252 28.499177,33.7418252 Z M9.36187228,32.3053333 L27.961091,32.3053333 L33.7093332,15.1859407 L18.6614817,4.60617755 L3.61363009,15.1859407 L9.36187228,32.3053333 Z" id="Shape" fill="#107FFF" fill-rule="nonzero"></path>
                        <polygon id="Path" fill-opacity="0.5" fill="#107FFF" points="11.2998047 29.8682586 8.33105469 16.0671623 19 8.5686744 29.6689453 16.0671623 25.5943359 28.2055192"></polygon>
                        <path d="M11.2998047,30.5865045 C10.9509766,30.5865045 10.6466797,30.3494834 10.5724609,30.015499 L7.60371094,16.2144027 C7.54433594,15.937878 7.659375,15.6541709 7.89316406,15.4853831 L18.5621094,7.98689516 C18.821875,7.80374244 19.1744141,7.80374244 19.4341797,7.98689516 L30.103125,15.4889743 C30.3628906,15.672127 30.4705078,15.9953377 30.3740234,16.2934098 L26.2994141,28.4317666 C26.2103516,28.6975176 25.9691406,28.8878528 25.6833984,28.9237651 L11.3888672,30.5865045 L11.2998047,30.5865045 Z M9.15488281,16.3760081 L11.8861328,29.0745968 L25.0339844,27.5447329 L28.796875,16.3400958 L19,9.45570817 L9.15488281,16.3760081 Z" id="Shape" fill="#107FFF" fill-rule="nonzero"></path>
                        <path d="M9.86738281,32.5688634 L8.6390625,31.7644279 L18.2466797,18.0459299 C18.3505859,17.8950983 18.5138672,17.7873614 18.6957031,17.7478579 L34.7566406,14.2284526 L35.0832031,15.6290323 L19.3080078,19.0837954 L9.86738281,32.5688634 Z" id="Path" fill-opacity="0.8" fill="#107FFF"></path>
                        <path d="M27.6167969,32.9603075 L18.3988281,19.0802041 L3.46601562,15.6290323 L3.81113281,14.2320439 L19.0333984,17.7514491 C19.2189453,17.7945439 19.3822266,17.905872 19.4861328,18.0602949 L28.8673828,32.1846018 L27.6167969,32.9603075 L27.6167969,32.9603075 Z" id="Path" fill-opacity="0.8" fill="#107FFF"></path>
                        <polygon id="Path" fill-opacity="0.8" fill="#107FFF" points="18.2578125 3.73487903 19.7421875 3.73487903 19.7421875 18.4481477 18.2578125 18.4481477"></polygon>
                    </g>
                </g>
            </g>
        </g>
    </g>
</svg>