<?xml version="1.0" encoding="UTF-8"?>
<svg width="60px" height="60px" viewBox="0 0 60 60" version="1.1" xmlns="http://www.w3.org/2000/svg" xmlns:xlink="http://www.w3.org/1999/xlink">
    <!-- Generator: Sketch 55 (78076) - https://sketchapp.com -->
    <title>雷达图灰</title>
    <desc>Created with Sketch.</desc>
    <g id="0709" stroke="none" stroke-width="1" fill="none" fill-rule="evenodd">
        <g id="图标0725" transform="translate(-136.000000, -202.000000)">
            <g id="编组-5" transform="translate(136.000000, 79.000000)">
                <g id="雷达图灰" transform="translate(0.000000, 123.000000)">
                    <rect id="Rectangle" stroke="#C9CCD8" fill="#FFFFFF" opacity="0.01" x="0.5" y="0.5" width="59" height="59"></rect>
                    <g id="雷达图" transform="translate(11.000000, 12.000000)">
                        <rect id="Rectangle" fill="#000000" opacity="0" x="0" y="0" width="38" height="36.7741935"></rect>
                        <path d="M28.8376953,33.7575605 L9.16230469,33.7575605 C8.83945312,33.7575605 8.55742187,33.5564516 8.45722656,33.2619708 L2.375,15.1513987 C2.27480469,14.8569178 2.38613281,14.5301159 2.64589844,14.3469632 L18.5658203,3.1530998 C18.8255859,2.96994708 19.178125,2.96994708 19.4378906,3.1530998 L35.3578125,14.3469632 C35.6175781,14.5301159 35.7251953,14.8533266 35.6287109,15.1513987 L29.5464844,33.2619708 C29.4462891,33.5564516 29.1605469,33.7575605 28.8376953,33.7575605 Z M9.70039062,32.3210685 L28.2996094,32.3210685 L34.0478516,15.2016759 L19,4.6219128 L3.95214844,15.2016759 L9.70039062,32.3210685 Z" id="形状结合" fill="#C9CCD8" fill-rule="nonzero"></path>
                        <polygon id="Path" fill-opacity="0.5" fill="#C9CCD8" points="11.2998047 29.8682586 8.33105469 16.0671623 19 8.5686744 29.6689453 16.0671623 25.5943359 28.2055192"></polygon>
                        <path d="M11.2998047,30.5865045 C10.9509766,30.5865045 10.6466797,30.3494834 10.5724609,30.015499 L7.60371094,16.2144027 C7.54433594,15.937878 7.659375,15.6541709 7.89316406,15.4853831 L18.5621094,7.98689516 C18.821875,7.80374244 19.1744141,7.80374244 19.4341797,7.98689516 L30.103125,15.4889743 C30.3628906,15.672127 30.4705078,15.9953377 30.3740234,16.2934098 L26.2994141,28.4317666 C26.2103516,28.6975176 25.9691406,28.8878528 25.6833984,28.9237651 L11.3888672,30.5865045 L11.2998047,30.5865045 Z M9.15488281,16.3760081 L11.8861328,29.0745968 L25.0339844,27.5447329 L28.796875,16.3400958 L19,9.45570817 L9.15488281,16.3760081 Z" id="Shape" fill="#C9CCD8" fill-rule="nonzero"></path>
                        <path d="M9.86738281,32.5688634 L8.6390625,31.7644279 L18.2466797,18.0459299 C18.3505859,17.8950983 18.5138672,17.7873614 18.6957031,17.7478579 L34.7566406,14.2284526 L35.0832031,15.6290323 L19.3080078,19.0837954 L9.86738281,32.5688634 Z" id="Path" fill="#C9CCD8"></path>
                        <path d="M27.6167969,32.9603075 L18.3988281,19.0802041 L3.46601563,15.6290323 L3.81113281,14.2320439 L19.0333984,17.7514491 C19.2189453,17.7945439 19.3822266,17.905872 19.4861328,18.0602949 L28.8673828,32.1846018 L27.6167969,32.9603075 L27.6167969,32.9603075 Z" id="Path" fill="#C9CCD8"></path>
                        <polygon id="Path" fill="#C9CCD8" points="18.2578125 3.73487903 19.7421875 3.73487903 19.7421875 18.4481477 18.2578125 18.4481477"></polygon>
                    </g>
                </g>
            </g>
        </g>
    </g>
</svg>