<?xml version="1.0" encoding="UTF-8"?>
<svg width="31px" height="12px" viewBox="0 0 31 12" version="1.1" xmlns="http://www.w3.org/2000/svg" xmlns:xlink="http://www.w3.org/1999/xlink">
    <title>Group 30</title>
    <g id="仪表盘" stroke="none" stroke-width="1" fill="none" fill-rule="evenodd">
        <g id="统计分析_公共_管理员_拖拽布局" transform="translate(-930.000000, -170.000000)">
            <g id="Group-9" transform="translate(834.000000, 88.000000)">
                <g id="数据表-copy-4备份-7" transform="translate(16.000000, 64.000000)">
                    <g id="Group-30" transform="translate(80.000000, 18.000000)">
                        <rect id="Rectangle" fill="#FFDCD9" x="0" y="0" width="31" height="12" rx="6"></rect>
                        <path d="M11.5513308,3.47908745 C11.5513308,3.60836567 11.4980994,3.8745227 11.391635,4.27756654 C11.3231936,4.53612297 11.2338409,4.83459907 11.1235741,5.1730038 C11.0133074,5.51140854 10.8878334,5.8764239 10.7471483,6.26806084 C10.6064632,6.65969778 10.446769,7.06843894 10.2680608,7.49429658 C10.0893527,7.92015422 9.89733943,8.34600548 9.69201521,8.77186312 L8.91634981,8.98859316 C8.38402776,8.34220209 7.94867089,7.6235781 7.61026616,6.83269962 C7.27186143,6.04182114 7.05703468,5.2661635 6.96577947,4.50570342 C6.86691966,4.98479327 6.75285236,5.42965574 6.62357414,5.84030418 C6.49429593,6.25095262 6.35171181,6.63878144 6.19581749,7.00380228 C6.03992317,7.36882312 5.86882222,7.71482726 5.68250951,8.0418251 C5.49619679,8.36882293 5.29657901,8.68821137 5.08365019,9 L4,8.6121673 C4.73764627,7.80607962 5.3364996,6.98669618 5.79657795,6.1539924 C6.25665629,5.32128861 6.51710996,4.44487152 6.57794677,3.52471483 L8.04942966,3.18250951 C8.01140665,3.57034414 8.02661563,3.98478867 8.09505703,4.42585551 C8.16349844,4.86692236 8.26806013,5.29657586 8.40874525,5.7148289 C8.54943036,6.13308194 8.71482795,6.52661413 8.90494297,6.89543726 C9.09505798,7.2642604 9.29277464,7.57034099 9.49809886,7.81368821 C9.8555151,7.07604194 10.0912542,6.4410673 10.2053232,5.90874525 C10.228137,5.78707163 10.2338404,5.68250951 10.2224335,5.59505703 C10.2110266,5.50760413 10.1787075,5.39543795 10.1254753,5.25855513 C9.94296487,4.77946529 9.90684356,4.37642749 10.0171103,4.04942966 C10.127377,3.72243183 10.4334576,3.47148376 10.9353612,3.29657795 C11.1634992,3.21292734 11.3231935,3.18821276 11.4144487,3.22243346 C11.5057039,3.25665416 11.5513308,3.34220464 11.5513308,3.47908745 Z M17.5095057,4.23193916 C16.9619744,4.17110236 16.4676828,4.13498105 16.026616,4.12357414 C15.5855491,4.11216724 15.1939181,4.11406837 14.851711,4.12927757 C14.6539914,4.4486708 14.4771871,4.75665251 14.3212928,5.05323194 C14.1653985,5.34981137 14.0114076,5.65018859 13.8593156,5.95437262 C13.9581754,5.88593122 14.0399236,5.82889757 14.1045627,5.78326996 C14.1692018,5.73764236 14.2357411,5.68441095 14.3041825,5.62357414 C14.8289,5.58555114 15.2775647,5.55893544 15.6501901,5.54372624 C16.0228156,5.52851703 16.2661591,5.52091255 16.3802281,5.52091255 L16.9619772,5.52091255 L16.3117871,6.39923954 C15.8326972,6.33079814 15.3897359,6.29087458 14.9828897,6.27946768 C14.5760436,6.26806078 14.1558957,6.28897312 13.7224335,6.34220532 C13.6311783,6.54752954 13.5532323,6.73764171 13.4885932,6.91254753 C13.423954,7.08745335 13.3574148,7.28136776 13.2889734,7.49429658 L12.4904943,8.03041825 C13.3117912,7.91634924 14.0608331,7.85361222 14.7376426,7.84220532 C15.4144521,7.83079842 16.0418222,7.855513 16.6197719,7.91634981 L16.1520913,8.88593156 C15.4600726,8.77946715 14.7205363,8.72813686 13.9334601,8.73193916 C13.1463839,8.73574146 12.3954408,8.79087399 11.6806084,8.8973384 C11.764259,8.72243259 11.8346005,8.5741451 11.891635,8.45247148 C11.9486695,8.33079787 11.9942964,8.22623618 12.0285171,8.13878327 C12.0627378,8.05133036 12.0893535,7.97528549 12.108365,7.91064639 C12.1273765,7.84600728 12.1444866,7.78707251 12.1596958,7.7338403 C12.3041832,7.13307684 12.4600752,6.5855538 12.6273764,6.09125475 C12.7946776,5.5969557 12.9809876,5.14448875 13.1863118,4.7338403 C13.353613,4.6577943 13.5171095,4.58174943 13.6768061,4.50570342 C13.8365027,4.42965741 14.0494283,4.3231946 14.3155894,4.18631179 C14.1634973,4.19391639 13.9600773,4.2129276 13.7053232,4.24334601 C13.4505691,4.27376441 13.1596975,4.31178684 12.8326996,4.35741445 L13.391635,3.54752852 C13.9543754,3.46387791 14.4600738,3.40114089 14.9087452,3.35931559 C15.3574167,3.31749029 15.7661579,3.28897346 16.134981,3.27376426 C16.5038041,3.25855511 16.8422038,3.25475281 17.1501901,3.26235741 C17.4581764,3.26996202 17.7490481,3.28517099 18.0228137,3.30798479 L17.5095057,4.23193916 Z M21.9240904,6.04686921 C21.8984891,6.13049531 21.835073,6.25365442 21.7338403,6.41634981 C21.6273759,6.58745333 21.4961985,6.77946662 21.3403042,6.99239544 C21.1844099,7.20532426 21.01521,7.42585437 20.8326996,7.6539924 C20.6501892,7.88213042 20.4657804,8.08745156 20.2794677,8.26996198 C20.093155,8.4524724 19.9182518,8.60456213 19.7547529,8.72623574 C19.5912539,8.84790935 19.4562743,8.90874525 19.3498099,8.90874525 C19.2433455,8.90874525 19.110267,8.85931608 18.9505703,8.76045627 C18.7908737,8.66159646 18.6368829,8.53232019 18.4885932,8.37262357 C18.3403034,8.21292696 18.2110272,8.03612264 18.1007605,7.84220532 C17.9904937,7.648288 17.9353612,7.46007696 17.9353612,7.27756654 C17.9353612,6.45626966 18.3193878,5.20152935 19.0874525,3.51330798 L20.6958175,3.19391635 C20.4980979,3.54372798 20.3003812,3.91444671 20.1026616,4.30608365 C19.904942,4.69772059 19.7262365,5.08554941 19.5665399,5.46958175 C19.4068433,5.85361409 19.277567,6.21862945 19.1787072,6.56463878 C19.0798474,6.91064812 19.0304183,7.21292646 19.0304183,7.47148289 C19.0304183,7.66159791 19.2053214,7.84030335 19.5551331,8.00760456 C19.6768067,7.90114015 19.7889729,7.80228183 19.891635,7.71102662 C19.9942971,7.61977141 20.0931554,7.52661644 20.1882129,7.43155894 C20.2832704,7.33650143 20.3802276,7.23384086 20.4790875,7.12357414 C20.5779473,7.01330743 20.6882123,6.88213004 20.8098859,6.73003802 C21.0988608,6.36501719 21.3422043,6.03232089 21.539924,5.73193916 C21.7376436,5.43155743 21.8745243,5.16349928 21.9505703,4.92775665 C22.072244,4.54752662 22.1596956,4.28707295 22.2129278,4.14638783 C22.26616,4.00570272 22.3155891,3.90494327 22.3612167,3.84410646 C22.4220535,3.76806046 22.5190107,3.69201559 22.6520913,3.61596958 C22.7851718,3.53992357 22.9334593,3.47338432 23.0969582,3.41634981 C23.2604571,3.3593153 23.431558,3.31368838 23.6102662,3.27946768 C23.7889743,3.24524698 23.9581741,3.22813688 24.1178707,3.22813688 C24.2927765,3.22813688 24.3802281,3.29277502 24.3802281,3.42205323 C24.3802281,3.46768084 24.3745248,3.51330776 24.3631179,3.55893536 C24.351711,3.60456297 24.3250953,3.65969549 24.28327,3.7243346 C24.2414447,3.78897371 24.1863121,3.86501857 24.1178707,3.95247148 C24.0494293,4.03992439 23.9581755,4.15209057 23.8441065,4.28897338 C23.6539914,4.51711141 23.505704,4.70722357 23.3992395,4.85931559 C23.2927751,5.0114076 23.2091258,5.15779397 23.148289,5.29847909 C23.0874522,5.4391642 23.0437264,5.58555057 23.0171103,5.73764259 C22.9904942,5.8897346 22.9657796,6.07224228 22.9429658,6.2851711 C22.920152,6.47528612 22.9106464,6.7015196 22.9144487,6.96387833 C22.918251,7.22623705 22.9315588,7.51710867 22.9543726,7.8365019 C23.1596968,7.71482829 23.3555124,7.58935426 23.5418251,7.46007605 C23.7281378,7.33079783 23.9220522,7.1787081 24.1235741,7.00380228 C24.3250961,6.82889646 24.5418239,6.61977308 24.7737643,6.37642586 C25.0057046,6.13307863 25.2737627,5.83270141 25.5779468,5.47528517 C25.707225,5.33079776 25.7889732,5.21102709 25.8231939,5.11596958 C25.8574146,5.02091207 25.8555135,4.89733916 25.8174905,4.74524715 C25.7642583,4.51710913 25.728137,4.33270032 25.7091255,4.19201521 C25.690114,4.0513301 25.6920151,3.93536167 25.7148289,3.84410646 C25.7376427,3.75285125 25.7832696,3.67680639 25.851711,3.61596958 C25.9201521,3.55513278 26.0190108,3.4866924 26.148289,3.41064639 C26.2319396,3.35741418 26.3269957,3.3060839 26.4334601,3.25665399 C26.5399245,3.20722409 26.6482884,3.16349829 26.7585551,3.12547529 C26.8688218,3.08745228 26.9733835,3.05703433 27.0722433,3.03422053 C27.1711032,3.01140673 27.2547525,3 27.3231939,3 C27.4752859,3 27.5513308,3.07224262 27.5513308,3.21673004 C27.5513308,3.30038065 27.5304185,3.40684346 27.4885932,3.53612167 C27.4467679,3.66539989 27.3650196,3.83650084 27.243346,4.04942966 C27.1216724,4.26235848 26.9543737,4.53041663 26.7414449,4.85361217 C26.528516,5.1768077 26.24715,5.57033989 25.8973384,6.03422053 C25.6920142,6.32319536 25.4353612,6.63497932 25.1273764,6.96958175 C24.8193901,7.30418418 24.5095073,7.61596814 24.1977186,7.90494297 C23.88593,8.19391779 23.5988606,8.43536025 23.3365019,8.62927757 C23.0741432,8.82319489 22.8897344,8.92015209 22.78327,8.92015209 C22.6844102,8.92015209 22.5741451,8.88212966 22.4524715,8.80608365 C22.3307979,8.73003764 22.2186317,8.6387838 22.1159696,8.53231939 C22.0133075,8.42585498 21.9258559,8.31178768 21.8536122,8.19011407 C21.7813685,8.06844046 21.7452471,7.96577989 21.7452471,7.88212928 C21.7452471,7.73764186 21.7471483,7.59695886 21.7509506,7.46007605 C21.7547529,7.32319323 21.7642585,7.18251023 21.7794677,7.03802281 C21.7946769,6.8935354 21.8136881,6.73954454 21.8365019,6.57604563 C21.8592693,6.41287929 21.8896099,6.23267484 21.9275247,6.03542689 L21.9240904,6.04686921 Z" id="NEW" fill="#D92332" fill-rule="nonzero"></path>
                    </g>
                </g>
            </g>
        </g>
    </g>
</svg>