<?xml version="1.0" encoding="UTF-8"?>
<svg width="188px" height="188px" viewBox="0 0 188 188" version="1.1" xmlns="http://www.w3.org/2000/svg" xmlns:xlink="http://www.w3.org/1999/xlink">
    <!-- Generator: Sketch 58 (84663) - https://sketch.com -->
    <title>编组 3备份 3</title>
    <desc>Created with Sketch.</desc>
    <g id="页面-1" stroke="none" stroke-width="1" fill="none" fill-rule="evenodd">
        <g id="报表缺省图" transform="translate(-753.000000, -690.000000)">
            <g id="编组-4备份" transform="translate(753.000000, 690.000000)">
                <g id="编组-3备份-3">
                    <rect id="Rectangle-Copy-17备份" fill="#FCFCFC" x="5.96855898e-13" y="-2.13162821e-14" width="187.759283" height="187.978916" rx="93.3802817"></rect>
                    <g id="编组-5" transform="translate(48.000000, 55.000000)">
                        <polygon id="Rectangle-Copy-5" fill="#C9CCD8" transform="translate(3.369827, 38.531118) rotate(90.000000) translate(-3.369827, -38.531118) " points="-34 35.2212186 40.7396546 35.2212186 40.7396546 41.8410166 -34 41.8410166"></polygon>
                        <rect id="Rectangle" fill="#C9CCD8" x="0.0599283154" y="70.5623982" width="91.1084175" height="6.40625611"></rect>
                        <g id="编组" transform="translate(14.126595, 0.666667)">
                            <rect id="Rectangle-Copy-2" fill="#E7E8ED" opacity="0.8" x="31.4444444" y="41.7849462" width="14.2222222" height="22.0215054"></rect>
                            <rect id="Rectangle-Copy-4" fill="#E1E3E9" opacity="0.8" x="57.0444444" y="36.2795699" width="14.2222222" height="27.5268817"></rect>
                            <rect id="Rectangle-Copy" fill="#C9CCD8" x="5.84444444" y="30.7741935" width="14.2222222" height="33.0322581"></rect>
                            <polygon id="路径-2" fill="#E2E3E9" fill-rule="nonzero" points="5.78888501 25.6409863 22.7883115 11.4323036 49.5876711 33.3805522 73.9502595 14.306256 68.5830738 7.88617291 49.7101067 22.6624585 22.7318506 0.567696402 0.211114988 19.3912718"></polygon>
                        </g>
                    </g>
                </g>
            </g>
        </g>
    </g>
</svg>