<?xml version="1.0" encoding="UTF-8"?>
<svg width="120px" height="120px" viewBox="0 0 120 120" version="1.1" xmlns="http://www.w3.org/2000/svg" xmlns:xlink="http://www.w3.org/1999/xlink">
    <!-- Generator: Sketch 58 (84663) - https://sketch.com -->
    <title>缺省图/仪表盘/双轴图</title>
    <desc>Created with Sketch.</desc>
    <g id="页面-1" stroke="none" stroke-width="1" fill="none" fill-rule="evenodd">
        <g id="规范-仪表盘卡片缺省图" transform="translate(-301.000000, -698.000000)">
            <g id="缺省图/仪表盘/双轴图" transform="translate(301.000000, 698.000000)">
                <g id="编组-6">
                    <g id="雷达图灰备份" fill="#FAFCFF">
                        <rect id="Rectangle" x="0" y="0" width="119.846351" height="119.986542" rx="59.9231754"></rect>
                    </g>
                    <g id="编组-5" opacity="0.5" transform="translate(28.000000, 32.000000)">
                        <polygon id="Rectangle-Copy-5" fill="#107FFF" transform="translate(3.579885, 28.354078) rotate(90.000000) translate(-3.579885, -28.354078) " points="-21.3333333 26.1474791 28.4931031 26.1474791 28.4931031 30.5606777 -21.3333333 30.5606777"></polygon>
                        <rect id="Rectangle" fill="#107FFF" x="1.37328554" y="49.7082655" width="60.738945" height="4.27083741"></rect>
                        <g id="编组" transform="translate(12.751063, 7.111111)">
                            <rect id="Rectangle-Copy-2" fill="#107FFF" opacity="0.8" x="18.962963" y="23.8566308" width="9.48148148" height="14.6810036"></rect>
                            <rect id="Rectangle-Copy-4" fill="#107FFF" opacity="0.8" x="36.0296296" y="20.1863799" width="9.48148148" height="18.3512545"></rect>
                            <rect id="Rectangle-Copy" fill="#107FFF" x="1.8962963" y="16.516129" width="9.48148148" height="22.0215054"></rect>
                            <polygon id="路径-2" fill="#87BFFF" fill-rule="nonzero" points="1.85925667 13.0939909 13.1922077 3.62153573 31.0584474 18.2537015 47.300173 5.53750401 43.7220492 1.25744861 31.1400711 11.1083057 13.1545671 -3.62153573 -1.85925667 8.92751451"></polygon>
                        </g>
                    </g>
                </g>
            </g>
        </g>
    </g>
</svg>