<?xml version="1.0" encoding="UTF-8"?>
<svg width="200px" height="200px" viewBox="0 0 200 200" version="1.1" xmlns="http://www.w3.org/2000/svg" xmlns:xlink="http://www.w3.org/1999/xlink">
    <!-- Generator: Sketch 58 (84663) - https://sketch.com -->
    <title>编组 7</title>
    <desc>Created with Sketch.</desc>
    <defs>
        <rect id="path-1" x="-5.68434189e-14" y="0" width="102.626728" height="97.9262673" rx="8"></rect>
        <filter x="-30.7%" y="-13.8%" width="140.9%" height="141.9%" filterUnits="objectBoundingBox" id="filter-2">
            <feOffset dx="-11" dy="7" in="SourceAlpha" result="shadowOffsetOuter1"></feOffset>
            <feGaussianBlur stdDeviation="5" in="shadowOffsetOuter1" result="shadowBlurOuter1"></feGaussianBlur>
            <feColorMatrix values="0 0 0 0 0.425922781   0 0 0 0 0.425922781   0 0 0 0 0.425922781  0 0 0 0.306244339 0" type="matrix" in="shadowBlurOuter1"></feColorMatrix>
        </filter>
    </defs>
    <g id="0916-移动端" stroke="none" stroke-width="1" fill="none" fill-rule="evenodd">
        <g id="编辑控件-关联表单备份" transform="translate(-275.000000, -527.000000)">
            <g id="编组-7" transform="translate(275.000000, 527.000000)">
                <g id="编组-6">
                    <rect id="矩形" fill="#F5F7F9" x="0" y="0" width="200" height="200"></rect>
                    <g id="编组-5" transform="translate(10.000000, 11.000000)">
                        <g id="Group-17" transform="translate(0.000000, 36.626728)">
                            <rect id="Rectangle-Copy-5" fill="#D7D9DC" x="11.2672811" y="1.17511521" width="157.465438" height="115" rx="8"></rect>
                            <rect id="Rectangle-Copy-9" fill="#B7B9BC" x="19.8847926" y="9.00921659" width="138.663594" height="93.2258065" rx="8"></rect>
                            <g id="Group-11" opacity="0.164806548" transform="translate(12.834101, 15.276498)">
                                <g id="Group-12" stroke="#BDD9FF">
                                    <path d="M0,0.507290171 L145.715964,0.507290171" id="Path-4"></path>
                                    <path d="M0,15.7259953 L145.715964,15.7259953" id="Path-4-Copy"></path>
                                    <path d="M0,30.9447005 L145.715964,30.9447005" id="Path-4-Copy-2"></path>
                                    <path d="M0,46.1634056 L145.715964,46.1634056" id="Path-4-Copy-3"></path>
                                    <path d="M0,61.3821108 L145.715964,61.3821108" id="Path-4-Copy-4"></path>
                                </g>
                                <g id="Group-12" opacity="0.43" stroke="#FFFFFF">
                                    <path d="M0,0.507290171 L145.715964,0.507290171" id="Path-4"></path>
                                    <path d="M0,15.6040644 L145.715964,15.6040644" id="Path-4-Copy"></path>
                                    <path d="M0,30.6040644 L145.715964,30.6040644" id="Path-4-Copy-2"></path>
                                    <path d="M0,45.6040644 L145.715964,45.6040644" id="Path-4-Copy-3"></path>
                                    <path d="M0,60.6040644 L145.715964,60.6040644" id="Path-4-Copy-4"></path>
                                    <path d="M7.10542736e-14,75.6040644 L145.715964,75.6040644" id="Path-4-Copy-4"></path>
                                </g>
                            </g>
                            <g id="Group-11-Copy" opacity="0.164806548" transform="translate(90.214286, 52.391705) rotate(90.000000) translate(-90.214286, -52.391705) translate(38.214286, -8.108295)">
                                <g id="Group-12" transform="translate(0.510920, 30.921659)" stroke="#BDD9FF">
                                    <path d="M0,0.506912442 L92.4911839,0.506912442" id="Path-4"></path>
                                    <path d="M0,15.7142857 L92.4911839,15.7142857" id="Path-4-Copy"></path>
                                    <path d="M0,30.921659 L92.4911839,30.921659" id="Path-4-Copy-2"></path>
                                    <path d="M0,46.1290323 L92.4911839,46.1290323" id="Path-4-Copy-3"></path>
                                    <path d="M0,61.3364055 L92.4911839,61.3364055" id="Path-4-Copy-4"></path>
                                </g>
                                <g id="Group-12" transform="translate(10.510920, 0.506912)" opacity="0.5" stroke="#FFFFFF">
                                    <path d="M0,30.921659 L92.4911839,30.921659" id="Path-4"></path>
                                    <path d="M1.42108547e-14,15.7142857 L92.4911839,15.7142857" id="Path-4-Copy-7"></path>
                                    <path d="M0,0.506912442 L92.4911839,0.506912442" id="Path-4-Copy-8"></path>
                                    <path d="M0,46.1290323 L92.4911839,46.1290323" id="Path-4-Copy"></path>
                                    <path d="M1.42108547e-14,61.3364055 L92.4911839,61.3364055" id="Path-4-Copy-2"></path>
                                    <path d="M1.42108547e-14,76.5437788 L92.4911839,76.5437788" id="Path-4-Copy-3"></path>
                                    <path d="M1.42108547e-14,91.7511521 L92.4911839,91.7511521" id="Path-4-Copy-4"></path>
                                    <path d="M1.42108547e-14,104.930876 L92.4911839,104.930876" id="Path-4-Copy-5"></path>
                                    <path d="M1.42108547e-14,118.617512 L92.4911839,118.617512" id="Path-4-Copy-6"></path>
                                </g>
                            </g>
                            <path d="M175.979812,109.373272 C177.084381,109.373272 177.979812,110.268702 177.979812,111.373272 C177.979812,111.808764 177.837667,112.232356 177.574973,112.579696 L173.012863,118.611819 C170.744719,121.61081 167.202005,123.373272 163.441895,123.373272 L16.5581049,123.373272 C12.7979953,123.373272 9.25528091,121.61081 6.98713666,118.611819 L2.42502698,112.579696 C1.75873709,111.698713 1.93278049,110.4444 2.81376378,109.778111 C3.16110413,109.515416 3.58469592,109.373272 4.02018834,109.373272 L65,109.373272 L65,110.373272 C65,111.427634 65.8158778,112.291437 66.8507377,112.367786 L67,112.373272 L106,112.373272 C107.104569,112.373272 108,111.477841 108,110.373272 L108,110.373272 L108,109.373272 L175.979812,109.373272 Z" id="形状结合" fill="#BDBFC4"></path>
                        </g>
                        <g id="编组" transform="translate(77.000000, 0.000000)">
                            <g id="Group-18">
                                <g id="Group-8">
                                    <g id="Group-2">
                                        <g id="Rectangle">
                                            <use fill="black" fill-opacity="1" filter="url(#filter-2)" xlink:href="#path-1"></use>
                                            <use fill="#F3F4F7" fill-rule="evenodd" xlink:href="#path-1"></use>
                                        </g>
                                        <path d="M94.6267281,0 C99.0450061,7.03681384e-15 102.626728,3.581722 102.626728,8 L102.626728,21.0013441 L0,21.0013441 L0,8 C-5.41083001e-16,3.581722 3.581722,8.11624501e-16 8,0 L94.6267281,0 Z" id="Combined-Shape" fill="#D7D9DC"></path>
                                    </g>
                                </g>
                            </g>
                        </g>
                    </g>
                </g>
            </g>
        </g>
    </g>
</svg>